HIERARCHY
ROOT Hips
{
	OFFSET 0.00 0.00 0.00
	CHANNELS 6 Xposition Yposition Zposition Xrotation Yrotation Zrotation
	JOINT RightUpLeg
	{
		OFFSET -3.69398 0.00000 0.00000
		CHANNELS 3 Xrotation Yrotation Zrotation
		JOINT RightLeg
		{
			OFFSET 0.00000 -15.79567 0.00000
			CHANNELS 3 Xrotation Yrotation Zrotation
			JOINT RightFoot
			{
				OFFSET 0.00000 -14.76699 0.00000
				CHANNELS 3 Xrotation Yrotation Zrotation
				JOINT RightToeBase
				{
					OFFSET 0.00000 -1.28446 4.79369
					CHANNELS 3 Xrotation Yrotation Zrotation
					End Site
					{
						OFFSET 0.00000 0.00000 2.95275
					}
				}
			}
		}
	}
	JOINT LeftUpLeg
	{
		OFFSET 3.69398 0.00000 0.00000
		CHANNELS 3 Xrotation Yrotation Zrotation
		JOINT LeftLeg
		{
			OFFSET 0.00000 -15.79567 0.00000
			CHANNELS 3 Xrotation Yrotation Zrotation
			JOINT LeftFoot
			{
				OFFSET 0.00000 -14.76699 0.00000
				CHANNELS 3 Xrotation Yrotation Zrotation
				JOINT LeftToeBase
				{
					OFFSET 0.00000 -1.28446 4.79369
					CHANNELS 3 Xrotation Yrotation Zrotation
					End Site
					{
						OFFSET 0.00000 0.00000 2.95275
					}
				}
			}
		}
	}
	JOINT Spine
	{
		OFFSET 0.00000 2.39296 0.00000
		CHANNELS 3 Xrotation Yrotation Zrotation
		JOINT RightShoulder
		{
			OFFSET 0.00000 13.20741 0.00000
			CHANNELS 3 Xrotation Yrotation Zrotation
			JOINT RightArm
			{
				OFFSET -8.14047 0.00000 0.00000
				CHANNELS 3 Xrotation Yrotation Zrotation
				JOINT RightForeArm
				{
					OFFSET -10.64984 0.00000 0.00000
					CHANNELS 3 Yrotation Zrotation Xrotation
					JOINT RightHand
					{
						OFFSET -8.30462 0.00000 0.00000
						CHANNELS 3 Xrotation Yrotation Zrotation
						End Site
						{
							OFFSET -3.93700 0.00000 0.00000
						}
						JOINT RightHandThumb1
						{
							OFFSET 0.00000 0.00000 0.00000
							CHANNELS 3 Xrotation Zrotation Yrotation
							End Site
							{
								OFFSET 0.00000 0.00000 3.93700
							}
						}
					}
				}
			}
		}
		JOINT LeftShoulder
		{
			OFFSET 0.00000 13.20741 0.00000
			CHANNELS 3 Xrotation Yrotation Zrotation
			JOINT LeftArm
			{
				OFFSET 8.14047 0.00000 0.00000
				CHANNELS 3 Xrotation Yrotation Zrotation
				JOINT LeftForeArm
				{
					OFFSET 10.64984 0.00000 0.00000
					CHANNELS 3 Yrotation Zrotation Xrotation
					JOINT LeftHand
					{
						OFFSET 8.30462 0.00000 0.00000
						CHANNELS 3 Xrotation Yrotation Zrotation
						End Site
						{
							OFFSET 3.93700 0.00000 0.00000
						}
						JOINT LeftHandThumb1
						{
							OFFSET 0.00000 0.00000 0.00000
							CHANNELS 3 Xrotation Zrotation Yrotation
							End Site
							{
								OFFSET 0.00000 0.00000 3.93700
							}
						}
					}
				}
			}
		}
		JOINT Head
		{
			OFFSET 0.00000 19.25010 0.00000
			CHANNELS 3 Xrotation Yrotation Zrotation
			End Site
			{
				OFFSET 0.00000 4.52755 0.00000
			}
		}
	}
}
MOTION
Frames: 13
Frame Time: 0.008333
 1.1588 32.4669 -4.6433 38.4493 5.3483 -2.4677 -28.5891 -16.1107 -1.3424 -3.2742 -0.0000 0.0000 -12.3978 -5.0234 18.5096 20.4540 0.0000 0.0000 -30.9117 6.2769 0.8336 0.5792 -0.0000 -0.0000 -11.9237 -9.9494 -6.4733 4.5301 0.0000 -0.0000 -44.9557 -1.6870 -2.2840 -24.1141 -4.2763 -41.2034 13.2428 16.3178 40.6663 -4.1765 -0.0000 -5.5088 -0.3873 7.5142 2.9591 32.8623 0.0000 -24.3270 -4.1521 12.2489 38.2878 -20.3859 -11.1720 -40.4816 0.7303 0.0000 20.8126 -3.3732 28.6360 7.0115 33.1476 -0.0000 26.2537 11.6395 -0.4102 8.0553
 1.1595 32.4667 -4.6392 38.4461 5.3591 -2.4786 -28.5600 -16.1100 -1.3396 -3.2988 0.0000 0.0000 -12.3869 -5.0567 18.6017 20.5098 -0.0000 -0.0000 -30.8792 6.2411 0.8371 0.5341 0.0000 0.0000 -11.9370 -9.9337 -6.4355 4.6436 -0.0000 -0.0000 -44.9941 -1.6822 -2.3034 -23.9770 -4.2740 -41.0545 13.1079 16.2311 41.0916 -4.4478 -0.0000 -5.5444 -0.4566 7.5504 3.4710 32.8623 0.0000 -24.3270 -4.0101 12.2325 38.2254 -20.4382 -11.2285 -40.9554 1.1827 0.0000 20.9611 -3.0288 28.4167 6.3445 33.1476 -0.0000 26.2537 11.7122 -0.4234 8.1374
 1.1599 32.4664 -4.6358 38.4389 5.3690 -2.4863 -28.5345 -16.0865 -1.3374 -3.3134 0.0000 0.0000 -12.4240 -5.0486 18.4113 20.6193 -0.0000 -0.0000 -30.8533 6.2157 0.8416 0.5046 0.0000 -0.0000 -11.8974 -9.9285 -6.5192 4.5284 -0.0000 0.0000 -45.0187 -1.6708 -2.3249 -23.8473 -4.2640 -40.9118 12.9422 16.0880 41.5329 -4.7420 -0.0000 -5.5418 -0.5032 7.6123 3.7928 32.8623 0.0000 -24.3270 -3.8673 12.2036 38.1403 -20.5490 -11.2312 -41.4150 1.6431 0.0000 21.0740 -2.5547 28.3384 5.3698 33.1476 -0.0000 26.2537 11.7539 -0.4318 8.2238
 1.1607 32.4667 -4.6351 38.4287 5.3726 -2.4909 -28.5216 -16.0503 -1.3402 -3.3100 0.0000 -0.0000 -12.4094 -5.0879 18.4091 20.5774 -0.0000 0.0000 -30.8381 6.1873 0.8427 0.4964 -0.0000 0.0000 -11.8853 -9.9013 -6.5233 4.5171 0.0000 -0.0000 -45.0322 -1.6552 -2.3449 -23.7420 -4.2480 -40.7562 12.8632 15.9818 41.9387 -5.0158 -0.0000 -5.6667 -0.5678 7.6029 4.2836 32.8623 0.0000 -24.3270 -3.7136 12.1627 38.0728 -20.5589 -11.2789 -41.8546 2.1345 0.0000 20.9289 -1.9412 28.0029 4.1288 33.1476 -0.0000 26.2537 11.7800 -0.4430 8.3126
 1.1593 32.4665 -4.6319 38.3909 5.3930 -2.4998 -28.4638 -16.0119 -1.3372 -3.3314 -0.0000 -0.0000 -12.3562 -5.1462 18.5735 20.4550 -0.0000 -0.0000 -30.7917 6.1144 0.8482 0.4890 -0.0000 0.0000 -11.9126 -9.8646 -6.4590 4.6322 0.0000 -0.0000 -45.0193 -1.6604 -2.3778 -23.6183 -4.2581 -40.5784 12.6690 15.7484 42.3318 -5.1414 -0.0000 -5.7121 -0.6028 7.6033 4.5467 32.8623 0.0000 -24.3270 -3.5627 12.1111 38.0192 -20.5573 -11.3282 -42.3075 2.6409 0.0000 20.6256 -1.4613 27.8539 3.1252 33.1476 -0.0000 26.2537 11.7902 -0.4470 8.4073
 1.1614 32.4677 -4.6309 38.4028 5.3767 -2.4899 -28.4911 -15.9501 -1.3473 -3.3015 -0.0000 -0.0000 -12.4080 -5.1664 18.3888 20.6161 -0.0000 0.0000 -30.7982 6.1101 0.8402 0.4866 0.0000 0.0000 -11.9007 -9.8429 -6.4258 4.6108 0.0000 -0.0000 -45.0467 -1.6306 -2.3978 -23.5452 -4.2804 -40.4279 12.3727 15.5295 42.7380 -5.4390 -0.0000 -5.5463 -0.6842 7.5560 5.1894 32.8623 0.0000 -24.3270 -3.4395 12.0707 37.9948 -20.7349 -11.1720 -42.8110 3.1416 0.0000 20.6316 -0.9632 27.5305 2.0832 33.1476 -0.0000 26.2537 11.7558 -0.4495 8.5054
 1.1618 32.4688 -4.6302 38.3925 5.3732 -2.4868 -28.4993 -15.9326 -1.3547 -3.2674 0.0000 0.0000 -12.3717 -5.1955 18.5762 20.5163 0.0000 -0.0000 -30.7957 6.0974 0.8408 0.5009 -0.0000 -0.0000 -11.8648 -9.8242 -6.4958 4.4945 0.0000 -0.0000 -45.0526 -1.6162 -2.4160 -23.5078 -4.2665 -40.2366 12.1983 15.3040 43.0292 -5.6044 0.0000 -5.4074 -0.7782 7.4957 5.9441 32.8623 0.0000 -24.3270 -3.2860 12.0225 37.9318 -20.8498 -11.0653 -43.2477 3.6394 0.0000 20.5218 -0.4839 27.2589 1.0565 33.1476 -0.0000 26.2537 11.7255 -0.4390 8.5820
 1.1612 32.4695 -4.6281 38.3678 5.3652 -2.4877 -28.4712 -15.8886 -1.3470 -3.2665 0.0000 0.0000 -12.3535 -5.2179 18.5328 20.4696 -0.0000 -0.0000 -30.7686 6.0707 0.8476 0.5023 -0.0000 0.0000 -11.8544 -9.7869 -6.4775 4.4917 0.0000 0.0000 -45.0499 -1.6133 -2.4330 -23.4675 -4.2538 -40.0758 12.0066 15.1443 43.3458 -5.8493 0.0000 -5.0798 -0.8195 7.1544 6.5520 32.8623 0.0000 -24.3270 -3.1740 11.9563 37.9098 -20.9509 -10.8881 -43.6809 4.0654 0.0000 20.3785 0.1217 26.9488 -0.2686 33.1476 -0.0000 26.2537 11.7010 -0.4081 8.6641
 1.1616 32.4707 -4.6264 38.3566 5.3481 -2.4788 -28.4658 -15.8446 -1.3471 -3.2544 0.0000 -0.0000 -12.3440 -5.2359 18.5349 20.4685 0.0000 -0.0000 -30.7574 6.0688 0.8472 0.5118 0.0000 0.0000 -11.8536 -9.7582 -6.4590 4.5136 0.0000 -0.0000 -45.0523 -1.6033 -2.4459 -23.4446 -4.2238 -39.9226 11.8848 15.0183 43.6128 -6.0654 0.0000 -4.9347 -0.8691 6.9451 7.1511 32.8623 0.0000 -24.3270 -3.0714 11.8958 37.8690 -21.1929 -10.5552 -44.0838 4.4943 0.0000 20.5402 0.5497 26.6739 -1.2244 33.1476 -0.0000 26.2537 11.6379 -0.3861 8.7235
 1.1622 32.4721 -4.6255 38.3397 5.3459 -2.4793 -28.4574 -15.8352 -1.3465 -3.2297 0.0000 0.0000 -12.4025 -5.2435 18.3495 20.6473 0.0000 0.0000 -30.7403 6.0420 0.8470 0.5141 -0.0000 0.0000 -11.8680 -9.7363 -6.3515 4.5979 0.0000 -0.0000 -45.0326 -1.5978 -2.4576 -23.4412 -4.2255 -39.8017 11.8275 14.9890 43.8390 -6.2920 0.0000 -4.9081 -0.8632 6.7046 7.3537 32.8623 0.0000 -24.3270 -3.0310 11.8162 37.8602 -21.3111 -10.3091 -44.4674 4.9189 0.0000 20.6654 0.9307 26.3549 -2.0958 33.1476 -0.0000 26.2537 11.5274 -0.3534 8.7850
 1.1623 32.4729 -4.6243 38.3321 5.3363 -2.4764 -28.4588 -15.8391 -1.3464 -3.2142 0.0000 -0.0000 -12.3503 -5.2323 18.4998 20.5115 0.0000 0.0000 -30.7304 6.0436 0.8470 0.5168 0.0000 0.0000 -11.8583 -9.7225 -6.3080 4.5366 0.0000 -0.0000 -45.0282 -1.5997 -2.4625 -23.4426 -4.1667 -39.7076 11.6733 14.8016 44.0802 -6.5442 0.0000 -4.7284 -0.9119 6.5732 7.9162 32.8623 0.0000 -24.3270 -2.9871 11.7551 37.8167 -21.4007 -10.0644 -44.7354 5.2022 0.0000 20.8084 1.4953 26.1462 -3.3901 33.1476 -0.0000 26.2537 11.4207 -0.2987 8.8247
 1.1610 32.4724 -4.6211 38.2982 5.3421 -2.4801 -28.4087 -15.8499 -1.3361 -3.2261 0.0000 -0.0000 -12.3985 -5.2296 18.3648 20.6709 -0.0000 0.0000 -30.6877 6.0502 0.8544 0.5067 -0.0000 -0.0000 -11.8734 -9.7319 -6.3662 4.6196 0.0000 -0.0000 -44.9927 -1.6202 -2.4762 -23.4499 -4.1105 -39.6295 11.6135 14.7211 44.2688 -6.8035 0.0000 -4.8006 -0.9315 6.3951 8.3051 32.8623 0.0000 -24.3270 -2.9983 11.6731 37.7814 -21.4647 -9.7878 -44.9375 5.3990 0.0000 20.9625 2.0019 25.9893 -4.5607 33.1476 -0.0000 26.2537 11.2808 -0.2656 8.8748
 1.1606 32.4717 -4.6171 38.2829 5.3341 -2.4729 -28.3870 -15.8690 -1.3333 -3.2341 -0.0000 -0.0000 -12.3410 -5.2093 18.5095 20.4943 -0.0000 -0.0000 -30.6577 6.0824 0.8522 0.4925 0.0000 0.0000 -11.8758 -9.7401 -6.3426 4.6252 -0.0000 0.0000 -44.9756 -1.6473 -2.4821 -23.4434 -4.0453 -39.5794 11.5322 14.6221 44.4303 -7.0230 0.0000 -4.8952 -0.9588 6.2844 8.6927 32.8623 0.0000 -24.3270 -3.0062 11.6506 37.7509 -21.5168 -9.5177 -45.0796 5.4780 0.0000 21.1706 2.4547 25.8473 -5.6158 33.1476 -0.0000 26.2537 11.1330 -0.2206 8.8997
